<svg xmlns="http://www.w3.org/2000/svg" viewBox="0 0 1200 630" role="img" aria-labelledby="title desc">
  <title id="title">patina social preview</title>
  <desc id="desc">patina social card with a flat copper-to-teal preserved-core mark and the tagline Strip the AI packaging. Keep the meaning.</desc>

  <rect width="1200" height="630" fill="#020617"/>
  <rect x="48" y="48" width="1104" height="534" rx="42" fill="#0b1120" stroke="#1e293b"/>

  <g transform="translate(112 122) scale(0.5078125)" aria-hidden="true">
    <rect width="512" height="512" rx="112" fill="#020617"/>
    <path d="M92 196C160 86 320 74 420 164L346 238C288 190 218 198 174 258Z" fill="#c46a2a"/>
    <path d="M420 316C352 426 192 438 92 348L160 270C224 322 294 314 338 254Z" fill="#2dd4bf"/>
    <circle cx="252" cy="248" r="54" fill="#ffe6a8" stroke="#020617" stroke-width="10"/>
  </g>

  <text x="430" y="205" fill="#f8fafc" font-family="Inter, ui-sans-serif, system-ui, -apple-system, BlinkMacSystemFont, 'Segoe UI', sans-serif" font-size="112" font-weight="850" letter-spacing="-7">patina</text>
  <text x="436" y="276" fill="#f8fafc" font-family="Inter, ui-sans-serif, system-ui, -apple-system, BlinkMacSystemFont, 'Segoe UI', sans-serif" font-size="38" font-weight="720" letter-spacing="-0.9">Strip the AI packaging. Keep the meaning.</text>
  <text x="438" y="334" fill="#94a3b8" font-family="Inter, ui-sans-serif, system-ui, -apple-system, BlinkMacSystemFont, 'Segoe UI', sans-serif" font-size="25" font-weight="530">Pattern-based cleanup for AI-sounding prose in KO / EN / ZH / JA.</text>

  <g font-family="Inter, ui-sans-serif, system-ui, -apple-system, BlinkMacSystemFont, 'Segoe UI', sans-serif" font-size="23" font-weight="680">
    <rect x="438" y="392" width="196" height="58" rx="29" fill="#064e3b" stroke="#34d399"/>
    <text x="466" y="429" fill="#d1fae5">audit + diff</text>
    <rect x="654" y="392" width="248" height="58" rx="29" fill="#0f172a" stroke="#475569"/>
    <text x="682" y="429" fill="#e2e8f0">meaning checks</text>
    <rect x="922" y="392" width="160" height="58" rx="29" fill="#451a03" stroke="#c46a2a"/>
    <text x="950" y="429" fill="#fed7aa">CLI skill</text>
  </g>

  <path d="M438 494h330" stroke="#34d399" stroke-width="5" stroke-linecap="round"/>
  <path d="M790 494h126" stroke="#c46a2a" stroke-width="5" stroke-linecap="round"/>
  <text x="438" y="540" fill="#64748b" font-family="ui-monospace, SFMono-Regular, Menlo, Monaco, Consolas, 'Liberation Mono', monospace" font-size="22" font-weight="650">github.com/devswha/patina</text>
</svg>
